HIERARCHY
ROOT hip
{
  OFFSET 0 0 0
  CHANNELS 6 Xposition Yposition Zposition Zrotation Yrotation Xrotation
  JOINT abdomen
  {
    OFFSET 0 20.6881 -0.73152
    CHANNELS 3 Zrotation Xrotation Yrotation
    JOINT chest
    {
      OFFSET 0 11.7043 -0.48768
      CHANNELS 3 Zrotation Xrotation Yrotation
      JOINT neck
      {
        OFFSET 0 22.1894 -2.19456
        CHANNELS 3 Zrotation Xrotation Yrotation
        JOINT head
        {
          OFFSET -0.24384 7.07133 1.2192
          CHANNELS 3 Zrotation Xrotation Yrotation
          JOINT leftEye
          {
            OFFSET 4.14528 8.04674 8.04672
            CHANNELS 3 Zrotation Xrotation Yrotation
            End Site
            {
              OFFSET 1 0 0
            }
          }
          JOINT rightEye
          {
            OFFSET -3.6576 8.04674 8.04672
            CHANNELS 3 Zrotation Xrotation Yrotation
            End Site
            {
              OFFSET 1 0 0
            }
          }
        }
      }
      JOINT rCollar
      {
        OFFSET -2.68224 19.2634 -4.8768
        CHANNELS 3 Zrotation Xrotation Yrotation
        JOINT rShldr
        {
          OFFSET -8.77824 -1.95073 1.46304
          CHANNELS 3 Zrotation Xrotation Yrotation
          JOINT rForeArm
          {
            OFFSET -28.1742 -1.7115 0.48768
            CHANNELS 3 Zrotation Xrotation Yrotation
            JOINT rHand
            {
              OFFSET -22.5879 0.773209 7.07136
              CHANNELS 3 Zrotation Xrotation Yrotation
              JOINT rThumb1
              {
                OFFSET -1.2192 -0.487915 3.41376
                CHANNELS 3 Zrotation Xrotation Yrotation
                JOINT rThumb2
                {
                  OFFSET -3.37035 -0.52449 3.41376
                  CHANNELS 3 Zrotation Xrotation Yrotation
                  End Site
                  {
                    OFFSET -1.78271 -1.18214 1.43049
                  }
                }
              }
              JOINT rIndex1
              {
                OFFSET -7.75947 0.938293 5.60832
                CHANNELS 3 Zrotation Xrotation Yrotation
                JOINT rIndex2
                {
                  OFFSET -2.54057 -0.884171 1.56538
                  CHANNELS 3 Zrotation Xrotation Yrotation
                  End Site
                  {
                    OFFSET -1.62519 -0.234802 1.16502
                  }
                }
              }
              JOINT rMid1
              {
                OFFSET -8.24714 1.18213 3.41376
                CHANNELS 3 Zrotation Xrotation Yrotation
                JOINT rMid2
                {
                  OFFSET -3.10165 -0.590103 1.0647
                  CHANNELS 3 Zrotation Xrotation Yrotation
                  End Site
                  {
                    OFFSET -2.48547 -0.328903 0.83742
                  }
                }
              }
              JOINT rRing1
              {
                OFFSET -8.82822 0.546677 1.51678
                CHANNELS 3 Zrotation Xrotation Yrotation
                JOINT rRing2
                {
                  OFFSET -2.60934 -0.819778 -0.0198488
                  CHANNELS 3 Zrotation Xrotation Yrotation
                  End Site
                  {
                    OFFSET -2.33842 -0.294052 0.168128
                  }
                }
              }
              JOINT rPinky1
              {
                OFFSET -8.27202 -0.0477905 -0.4584
                CHANNELS 3 Zrotation Xrotation Yrotation
                JOINT rPinky2
                {
                  OFFSET -1.82734 -0.647385 -0.700984
                  CHANNELS 3 Zrotation Xrotation Yrotation
                  End Site
                  {
                    OFFSET -1.69225 -0.51767 -0.607171
                  }
                }
              }
            }
          }
        }
      }
      JOINT lCollar
      {
        OFFSET 2.68224 19.2634 -4.8768
        CHANNELS 3 Zrotation Xrotation Yrotation
        JOINT lShldr
        {
          OFFSET 8.77824 -1.95073 1.46304
          CHANNELS 3 Zrotation Xrotation Yrotation
          JOINT lForeArm
          {
            OFFSET 28.1742 -1.7115 0.48768
            CHANNELS 3 Zrotation Xrotation Yrotation
            JOINT lHand
            {
              OFFSET 22.5879 0.773209 7.07136
              CHANNELS 3 Zrotation Xrotation Yrotation
              JOINT lThumb1
              {
                OFFSET 1.2192 -0.487915 3.41376
                CHANNELS 3 Zrotation Xrotation Yrotation
                JOINT lThumb2
                {
                  OFFSET 3.37035 -0.52449 3.41376
                  CHANNELS 3 Zrotation Xrotation Yrotation
                  End Site
                  {
                    OFFSET 1.78271 -1.18214 1.43049
                  }
                }
              }
              JOINT lIndex1
              {
                OFFSET 7.75947 0.938293 5.60832
                CHANNELS 3 Zrotation Xrotation Yrotation
                JOINT lIndex2
                {
                  OFFSET 2.54057 -0.884171 1.56538
                  CHANNELS 3 Zrotation Xrotation Yrotation
                  End Site
                  {
                    OFFSET 1.62519 -0.234802 1.16502
                  }
                }
              }
              JOINT lMid1
              {
                OFFSET 8.24714 1.18213 3.41376
                CHANNELS 3 Zrotation Xrotation Yrotation
                JOINT lMid2
                {
                  OFFSET 3.10165 -0.590103 1.0647
                  CHANNELS 3 Zrotation Xrotation Yrotation
                  End Site
                  {
                    OFFSET 2.48547 -0.328903 0.83742
                  }
                }
              }
              JOINT lRing1
              {
                OFFSET 8.82822 0.546677 1.51678
                CHANNELS 3 Zrotation Xrotation Yrotation
                JOINT lRing2
                {
                  OFFSET 2.60934 -0.819778 -0.0198488
                  CHANNELS 3 Zrotation Xrotation Yrotation
                  End Site
                  {
                    OFFSET 2.33842 -0.294052 0.168128
                  }
                }
              }
              JOINT lPinky1
              {
                OFFSET 8.27202 -0.0477905 -0.4584
                CHANNELS 3 Zrotation Xrotation Yrotation
                JOINT lPinky2
                {
                  OFFSET 1.82734 -0.647385 -0.700984
                  CHANNELS 3 Zrotation Xrotation Yrotation
                  End Site
                  {
                    OFFSET 1.69225 -0.51767 -0.607171
                  }
                }
              }
            }
          }
        }
      }
    }
  }
  JOINT rButtock
  {
    OFFSET -8.77824 4.35084 1.2192
    CHANNELS 3 Zrotation Xrotation Yrotation
    JOINT rThigh
    {
      OFFSET 0 -1.70687 -2.19456
      CHANNELS 3 Zrotation Xrotation Yrotation
      JOINT rShin
      {
        OFFSET 0 -36.8199 0.73152
        CHANNELS 3 Zrotation Xrotation Yrotation
        JOINT rFoot
        {
          OFFSET 0.73152 -45.1104 -5.12064
          CHANNELS 3 Zrotation Xrotation Yrotation
          End Site
          {
            OFFSET -1.1221 -3.69964 12.103
          }
        }
      }
    }
  }
  JOINT lButtock
  {
    OFFSET 8.77824 4.35084 1.2192
    CHANNELS 3 Zrotation Xrotation Yrotation
    JOINT lThigh
    {
      OFFSET 0 -1.70687 -2.19456
      CHANNELS 3 Zrotation Xrotation Yrotation
      JOINT lShin
      {
        OFFSET 0 -36.8199 0.73152
        CHANNELS 3 Zrotation Xrotation Yrotation
        JOINT lFoot
        {
          OFFSET -0.73152 -45.1104 -5.12064
          CHANNELS 3 Zrotation Xrotation Yrotation
          End Site
          {
            OFFSET 1.1221 -3.69964 12.103
          }
        }
      }
    }
  }
}
MOTION
Frames:	7
Frame Time:	0.03333
0.0 0.0 0.0 0.0 0.0 0.0 0.0 0.0 0.0 0.0 0.0 0.0 0.0 0.0 0.0 0.0 0.0 0.0 0.0 0.0 0.0 0.0 0.0 0.0 0.0 0.0 0.0 0.0 0.0 0.0 0.0 0.0 0.0 0.0 0.0 0.0 0.0 0.0 0.0 0.0 0.0 0.0 0.0 0.0 0.0 0.0 0.0 0.0 0.0 0.0 0.0 0.0 0.0 0.0 0.0 0.0 0.0 0.0 0.0 0.0 0.0 0.0 0.0 0.0 0.0 0.0 0.0 0.0 0.0 0.0 0.0 0.0 0.0 0.0 0.0 0.0 0.0 0.0 0.0 0.0 0.0 0.0 0.0 0.0 0.0 0.0 0.0 0.0 0.0 0.0 0.0 0.0 0.0 0.0 0.0 0.0 0.0 0.0 0.0 0.0 0.0 0.0 0.0 0.0 0.0 0.0 0.0 0.0 0.0 0.0 0.0 0.0 0.0 0.0 0.0 0.0 0.0 0.0 0.0 0.0 0.0 0.0 0.0 0.0 0.0 0.0 0.0 0.0 0.0 0.0 0.0 0.0
0.8867999999999999 43.5736 -0.8317 -7.676603 30.081197 4.353277 3.432983 19.226998 22.665872 -6.494371 -13.597028 -3.195123 -9.441506 19.103781 -47.598867 30.074044 -7.117368 90.284438 -0.001676 -0.0 0.004421 0.004009 -0.0 -0.001287 -0.273011 1.606857 0.360621 -106.043578 10.394388 139.954186 24.236224 46.366631 -157.382358 169.82019 -12.331533 145.251834 2.462555 -2.446096 -0.326737 22.621752 -40.070942 -17.580536 -46.207678 39.652585 36.319178 -1.749826 12.358206 0.133856 68.98371 -80.154066 40.57682 -86.047265 64.058425 77.698275 0.004043 1.77128 0.557195 -6.763607 62.74793 19.308473 -146.206225 15.405783 -142.730922 10.811554 24.762436 3.782982 153.050116 10.023317 -158.66771 -146.33126 -3.079348 -177.20082 15.955345 -38.145844 -100.060909 4.596757 -30.995175 6.244196 171.653126 -9.33653 -89.94871 156.222253 1.640553 -81.652921 46.209382 39.652626 -36.318105 89.343711 49.525665 -66.227529 -173.120853 -66.297612 -137.610276 163.190379 -3.936825 -142.977315 145.118614 0.267703 179.212512 73.707218 -78.004116 95.20748 46.800032 -48.626203 45.558254 -2.332492 -2.727818 1.443013 9.3e-05 4.6e-05 -0.00012 -63.301209 -46.375427 0.0 99.532537 37.337254 -87.426178 151.926983 -21.587189 29.141615 -0.000992 0.000382 0.001275 95.202383 -57.494238 6.665598 -115.949736 21.746711 -73.371669 -65.009717 29.115816 -166.704944
1.7416 44.5809 -1.3718 -8.166131 30.35134 4.763616 4.7114 19.729617 0.0 -1.494283 -15.284826 19.345334 -9.446063 19.089093 -47.586441 30.835299 -7.518156 90.225654 0.001669 -0.0 -0.004428 0.0017 0.0 0.001297 -155.613716 -4.236201 161.991728 -36.414256 -10.174089 -24.947379 177.434171 -46.540352 -79.639639 -10.768326 38.304644 3.061334 -172.746191 -10.423552 89.929461 -116.007611 14.355472 53.413019 -77.666553 43.030567 64.538859 -167.312063 -15.073475 114.030742 -160.826427 -7.141528 143.31725 -162.176036 -1.466509 142.588976 -145.119068 0.310607 -179.224699 11.940455 52.756084 -2.722805 -85.783753 -50.536611 -84.155048 -146.947883 13.27128 -143.023675 155.504241 -3.514624 -161.838205 -143.784587 34.130999 172.162528 -91.703366 40.492455 -74.445193 69.267211 59.311915 -47.97295 78.030365 38.688928 -42.412992 129.052167 -21.635527 -81.411675 27.609254 30.76632 -20.254205 160.480735 -6.675285 -110.871929 169.088454 -33.24759 -145.374893 42.543551 58.279854 -36.5494 -0.001226 -0.018448 0.006261 -5.511031 36.632509 -6.327841 157.330287 57.245969 150.513151 -1.421303 -0.370186 1.773014 0.002352 9.6e-05 0.001176 -61.328885 -46.263757 -0.0 110.749965 42.88704 142.537487 176.645152 -9.169746 -96.935991 -179.983283 75.750835 -0.011438 -149.68841 -13.983783 67.542845 106.550398 0.501516 -14.574273 164.79687 -62.365534 73.867023
2.91 45.799800000000005 -2.0227 -8.603785 30.753748 5.295854 4.38859 15.199568 163.68427 -2.420188 10.381226 -144.316985 10.431445 21.143737 83.180214 -31.605988 1.652709 -44.011128 0.003627 0.0 0.000685 -0.002051 -0.0 0.000715 -142.973872 39.431683 147.390168 -163.405317 72.125193 123.335757 15.860532 -45.971624 -130.325867 166.752027 -20.64783 143.762676 -176.597447 -14.213498 89.691007 -12.009572 -48.933111 1.366236 -164.632663 -40.669724 122.444774 -55.082811 56.597883 41.857068 -160.889955 -7.337385 143.345678 -163.596497 -5.686604 143.058616 -145.119826 0.267761 -179.212434 11.7786 55.997571 -2.182819 25.922135 79.093481 10.828039 -4.06295 -12.809038 -5.553499 13.743673 42.431473 -15.569568 -57.213314 -14.929706 -53.990677 -10.057981 -36.188843 -114.874132 11.517881 -5.206518 3.305831 166.631382 -4.304909 -89.771198 113.971334 11.155967 -51.8708 0.327723 0.529889 -0.186035 -0.974387 14.157605 -2.849947 -6.53321 -20.414896 2.718453 -2.599511 1.638864 -0.2135 0.000108 -0.061001 0.018108 155.4048 -1.037237 -171.974781 29.627858 -40.969822 28.615831 146.228336 10.560032 143.059873 0.000425 -0.001459 0.000638 -60.120871 -46.041305 40.100373 105.630915 -1.05905 90.0254 -158.555156 4.710171 -155.01227 179.987278 75.749846 0.008705 -148.565811 -13.592684 -85.344265 -113.133913 16.106067 -75.508715 -59.672562 30.213772 -168.008458
4.4511 47.313 -2.7643999999999997 -8.769064 31.306002 6.086823 5.042158 19.679416 -0.0 -1.082469 -15.107697 18.309389 -8.733759 29.699183 -113.246851 34.055125 28.203819 145.850874 0.002031 -0.0 -0.002591 0.001248 -0.0 -0.00225 3.237688 -26.386751 -5.174882 -113.016787 5.256869 164.314151 -119.606395 -5.54358 -36.626526 16.712837 -36.218892 9.029342 -166.632143 -4.304607 89.771105 -162.80948 -4.242284 83.581454 -166.824101 -43.973364 122.060809 34.355099 -38.682342 -7.518223 -125.644247 49.83974 115.273598 3.047817 1.053441 0.389119 0.000826 0.063553 0.021478 -23.385061 72.956466 36.407539 -144.260202 9.238052 -141.009 -151.734788 24.670184 -144.292976 29.636746 58.071006 -32.037179 -165.271343 -20.034722 -114.4368 -147.064717 -9.270445 -15.142668 143.360351 47.631545 -119.251683 3.029815 2.964314 -0.542226 -125.249935 -82.289521 -51.765555 148.885901 -12.610447 -120.243483 157.531699 -6.644055 -119.209975 36.037288 51.722649 -29.832851 -80.701163 -77.899639 -52.068672 0.01504 -1.323287 0.41499 -9.34283 12.723113 -1.658508 143.938184 8.264631 140.720844 25.638653 -40.255151 27.039136 179.981636 75.749369 0.01511 143.754247 9.925702 -180.0 152.587794 -75.689165 146.059116 13.381728 32.39091 172.689583 0.0015 -0.001545 -0.0 89.902057 -60.478452 0.0 -98.372426 20.766857 88.07249 96.846055 -6.205269 1.358676
6.4525 49.1978 -3.6602999999999994 -8.391823 32.126668 7.172595 3.60772 19.18487 23.56561 -5.476283 -13.464789 -6.305712 -9.875004 20.5778 -59.482532 36.303845 -2.684417 100.233428 0.001808 0.0 0.00019 0.001808 0.0 0.00019 -155.417116 -2.95158 161.718146 80.272024 74.831977 -106.594031 -160.573241 67.519899 -91.740885 -6.999068 29.00051 1.7099 4.530624 -4.514194 -0.521634 -155.749013 -69.956839 122.575722 -123.869874 22.788189 104.455355 77.32638 -66.892922 29.993854 -36.036311 51.723101 29.832212 -163.835536 -7.021702 143.476281 -145.111869 -0.627072 -178.931574 -71.007411 87.696991 84.344979 -1.178094 -2.98536 -1.09204 19.495636 58.382743 9.597314 157.323758 -17.489037 -164.608453 -78.515529 69.617395 107.087428 160.088197 -47.782759 -47.461219 173.096029 -6.989057 -143.48879 178.520339 -16.063851 -89.475509 -38.305204 -70.151652 -28.580021 124.521569 22.15615 -104.961243 -85.062888 -68.087242 -36.715272 164.722088 -19.553425 -144.756991 86.845883 63.821121 -78.601793 0.022359 -1.726017 0.542648 -10.456673 0.217587 0.041234 145.17143 12.067297 141.824336 -2.711819 1.020635 1.67668 0.000399 -8.2e-05 -0.000513 -52.469049 -45.101405 -109.08199 -86.288603 18.672525 38.182731 -173.457734 -20.661452 -31.51962 -179.991207 75.749724 -0.006016 -153.298058 -11.142871 125.280509 114.907489 -50.464244 29.911646 -32.94726 -4.318323 -99.890191
8.7566 51.6597 -4.884399999999999 -7.442562 33.439792 8.333269 2.167167 15.498118 124.619342 -9.706114 4.65401 -107.103363 -7.751832 29.359262 -114.894679 36.03795 29.207698 145.323734 -2.8e-05 0.0 -0.003477 -0.000577 -0.0 0.002687 2.459736 -18.216278 -3.670097 -121.686465 -9.958095 162.48642 -154.302362 -30.145184 -65.01619 -1.697231 14.190603 1.18233 1.87092 -1.85651 -0.257774 38.246775 -64.888276 -18.783501 -149.817861 -14.316887 120.600827 -30.682284 49.285102 17.861562 0.541217 -1.589972 -0.294427 2.876353 1.035615 0.112999 -145.098544 -1.521981 -178.649751 -66.694768 87.684214 80.0878 -4.076236 -9.640301 -3.813494 -127.854818 -30.078191 -126.414415 14.148695 43.061364 -15.997269 126.985943 4.547056 -119.521197 -82.405247 -52.410404 78.830115 144.178705 46.954156 -120.014876 -174.053671 -22.870781 -88.063403 -30.446105 -72.585027 -19.890342 138.493077 4.896125 -114.864659 159.235403 -6.400736 -118.586175 160.673067 -6.667987 -143.24472 -172.686473 -58.883282 -136.441544 -0.001095 0.022551 -0.007553 -8.355111 20.255682 -2.865388 124.850013 -29.038566 122.622008 -71.275844 84.337185 32.41666 0.000234 0.001774 -0.000301 -49.984337 -44.505264 -180.0 -82.646598 -57.390534 10.729102 156.043847 19.095313 -54.431388 0.000371 -7.6e-05 -0.000477 77.380808 -63.62876 -16.205151 -105.64389 8.862988 -81.953202 70.03952 25.958985 154.69643
